{
  "accessors": [
    {
      "bufferView": 2,
      "componentType": 5126,
      "count": 62884,
      "max": [
        391.2909851074219,
        285.5223083496094,
        2091.38525390625
      ],
      "min": [
        -338.7593994140625,
        -285.52239990234375,
        -0.08340000361204147
      ],
      "type": "VEC3"
    },
    {
      "bufferView": 2,
      "byteOffset": 754608,
      "componentType": 5126,
      "count": 62884,
      "max": [
        0.9999986886978149,
        0.9999945163726807,
        0.9998672008514404
      ],
      "min": [
        -0.9999953508377075,
        -0.9999948740005493,
        -0.9998664855957031
      ],
      "type": "VEC3"
    },
    {
      "bufferView": 3,
      "componentType": 5126,
      "count": 62884,
      "max": [
        0.9999960660934448,
        0.9999984502792358,
        0.9999980926513672,
        1.0
      ],
      "min": [
        -0.9999884963035583,
        -0.999997615814209,
        -0.9999990463256836,
        -1.0
      ],
      "type": "VEC4"
    },
    {
      "bufferView": 1,
      "componentType": 5126,
      "count": 62884,
      "max": [
        0.9994999766349792,
        0.9847999811172485
      ],
      "min": [
        0.0005000000237487257,
        0.0005000000237487257
      ],
      "type": "VEC2"
    },
    {
      "bufferView": 0,
      "componentType": 5125,
      "count": 95970,
      "type": "SCALAR"
    }
  ],
  "asset": {
    "extras": {
      "author": "Abdur Razzak Sawon (https://sketchfab.com/md.abdur.razzak.sawon)",
      "license": "CC-BY-4.0 (http://creativecommons.org/licenses/by/4.0/)",
      "source": "https://sketchfab.com/3d-models/faux-silver-dollar-eucalyptu-bad1d0a904564b2ba4d753024373d573",
      "title": "Faux Silver Dollar Eucalyptu"
    },
    "generator": "Sketchfab-16.28.0",
    "version": "2.0"
  },
  "bufferViews": [
    {
      "buffer": 0,
      "byteLength": 383880,
      "name": "floatBufferViews",
      "target": 34963
    },
    {
      "buffer": 0,
      "byteLength": 503072,
      "byteOffset": 383880,
      "byteStride": 8,
      "name": "floatBufferViews",
      "target": 34962
    },
    {
      "buffer": 0,
      "byteLength": 1509216,
      "byteOffset": 886952,
      "byteStride": 12,
      "name": "floatBufferViews",
      "target": 34962
    },
    {
      "buffer": 0,
      "byteLength": 1006144,
      "byteOffset": 2396168,
      "byteStride": 16,
      "name": "floatBufferViews",
      "target": 34962
    }
  ],
  "buffers": [
    {
      "byteLength": 3402312,
      "uri": "scene.bin"
    }
  ],
  "images": [
    {
      "uri": "textures/wire_224086086_baseColor.png"
    },
    {
      "uri": "textures/wire_224086086_metallicRoughness.png"
    },
    {
      "uri": "textures/wire_224086086_normal.png"
    }
  ],
  "materials": [
    {
      "doubleSided": true,
      "name": "wire_224086086",
      "normalTexture": {
        "index": 2
      },
      "pbrMetallicRoughness": {
        "baseColorTexture": {
          "index": 0
        },
        "metallicRoughnessTexture": {
          "index": 1
        }
      }
    }
  ],
  "meshes": [
    {
      "name": "Object_0",
      "primitives": [
        {
          "attributes": {
            "NORMAL": 1,
            "POSITION": 0,
            "TANGENT": 2,
            "TEXCOORD_0": 3
          },
          "indices": 4,
          "material": 0,
          "mode": 4
        }
      ]
    }
  ],
  "nodes": [
    {
      "children": [
        1
      ],
      "matrix": [
        1.0,
        0.0,
        0.0,
        0.0,
        0.0,
        2.220446049250313e-16,
        -1.0,
        0.0,
        0.0,
        1.0,
        2.220446049250313e-16,
        0.0,
        0.0,
        0.0,
        0.0,
        1.0
      ],
      "name": "Sketchfab_model"
    },
    {
      "children": [
        2
      ],
      "name": "Faux_Silver_Dollar_Eucalyptu.obj.cleaner.materialmerger.gles"
    },
    {
      "mesh": 0,
      "name": "Object_2"
    }
  ],
  "samplers": [
    {
      "magFilter": 9729,
      "minFilter": 9987,
      "wrapS": 10497,
      "wrapT": 10497
    }
  ],
  "scene": 0,
  "scenes": [
    {
      "name": "Sketchfab_Scene",
      "nodes": [
        0
      ]
    }
  ],
  "textures": [
    {
      "sampler": 0,
      "source": 0
    },
    {
      "sampler": 0,
      "source": 1
    },
    {
      "sampler": 0,
      "source": 2
    }
  ]
}
